<?xml version="1.0" standalone="no"?><!DOCTYPE svg PUBLIC "-//W3C//DTD SVG 1.1//EN" "http://www.w3.org/Graphics/SVG/1.1/DTD/svg11.dtd"><svg class="icon" width="200px" height="200.00px" viewBox="0 0 1024 1024" version="1.1" xmlns="http://www.w3.org/2000/svg"><path d="M941.4 683.4c-2.9-5.8-162.3-503.9-171.7-502.6-9.2 1.3-208.3 51.4-513.3-2.3-17.1-3-177 532.4-179 539.5-3.3 11.9 13.9 48.6 20.6 52.5-1.1 5.7-1 11.8 0.5 17.9 2.5 9.5 45.2 45.6 53.3 44.4 14.4-2.1 31-29.8 31.3-30.6 55.7 16.1 55.7-42.4 62.5-68.9-1.7 14.7-10 140.9 29.4 133.1 248.4-49.4 292.1-23.6 482.7-0.3 6.6 8.5 32.3-75.2 33.1-94 5 11.4 12.7 21.2 23.2 28.8 11.1 8.1 26.3 12.1 40.3 10.8 6.6 9.9 17.1 16.4 29.5 16.4 12 0 46.5-36.2 46-49-0.2-5.5-2-16.9-1.3-17.5 9.1-7.9 16.4-19.8 19.2-32 3.8-16.2 1-31.6-6.3-46.2z" fill="#ffd3ea" /><path d="M344.6 138.6c13.4 10.9 115.7 50.8 117.9 40.9 2.3-10.6-79.9-63.3-86-68.3-7.6-6.1-40 20.9-31.9 27.4zM681.4 133.2c-0.5-11-39.5-22.4-49.3-19.9-10.6 2.8-76.8 57.3-73.7 67.7 2.9 9.5 123.4-37.8 123-47.8z" fill="#ffd3ea" /><path d="M749.3 865.1c-44.4-12.3-301.5-53.8-474.3 1.3-7.4 2.4 0.8 53.3 0.8 53.3h473.5c0-0.1 16.6-50 0-54.6zM619.5 115.5l-210.6 1.1 103.6 83.7z" fill="#e0a4c7" /><path d="M755.8 118.7c-5.8-2.6-161 60.3-158.1 69.8 3.2 10.5 169.6-20.4 178.9-22.6 9.9-2.4-15.9-45-20.8-47.2zM246.1 166.7l179.1 21.2-151.3-72.4z" fill="#caa9ff" /><path d="M334.8 120.9c-0.4-10.5-8-19.3-18.2-19.3-9.5 0-18.6 8.9-18.2 19.3 0.4 10.5 8 19.3 18.2 19.3 9.5 0 18.6-8.9 18.2-19.3zM722.7 120.1c-0.4-10.5-8-19.3-18.2-19.3-9.5 0-18.6 8.9-18.2 19.3 0.4 10.5 8 19.3 18.2 19.3 9.6 0.1 18.7-8.8 18.2-19.3z" fill="#8351e5" /><path d="M788.1 796l-77.5-506.3s-19.1 43.6-14.2 75.9C713 474.9 750.2 721.2 757 761c6 35.6 0.7 105.1 0.7 105.1l30.4-70.1zM235.6 796l30.4 70s-5.3-69.5 0.7-105.1c6.7-39.7 44-286 60.6-395.4 4.9-32.3-14.2-75.9-14.2-75.9L235.6 796zM251.1 195.4s151.2 31.4 260.9 31.4c117.4 0 269.8-35 269.8-35l-16.2-18s-232.9 38-253.1 35.6c-20.1-2.4-256.2-30.9-256.2-30.9l-5.2 16.9z" fill="#c27fc6" /><path d="M258.3 648.9c-1.5 0-3-0.9-3.6-2.3l-16.3-34.9-33.7 24c-0.9 0.7-2.1 0.9-3.2 0.6-1.1-0.3-2.1-1-2.6-2l-19.7-37.2-35.4 21.1c-0.9 0.6-2 0.7-3.1 0.4-1-0.3-1.9-1-2.5-1.9l-24.4-43.5c-1.1-1.9-0.4-4.4 1.5-5.4 1.9-1.1 4.4-0.4 5.4 1.5l22.4 39.9 35.5-21.2c0.9-0.6 2.1-0.7 3.1-0.4 1.1 0.3 1.9 1 2.5 2l19.5 36.9 33.9-24.1c1-0.7 2.2-0.9 3.3-0.6 1.1 0.3 2.1 1.1 2.6 2.2l18.3 39.3c0.9 2 0.1 4.4-1.9 5.3-0.5 0.2-1 0.3-1.6 0.3z" fill="#faf0ff" /><path d="M265.6 620.9c-1.5 0-2.9-0.9-3.6-2.3l-16.3-34.9-33.7 24c-0.9 0.7-2.1 0.9-3.2 0.6-1.1-0.3-2.1-1-2.6-2l-19.7-37.2-35.5 21.1c-0.9 0.6-2 0.7-3.1 0.4-1-0.3-1.9-1-2.5-1.9L121 545.2c-1.1-1.9-0.4-4.4 1.5-5.4 1.9-1.1 4.4-0.4 5.4 1.5l22.4 39.9 35.5-21.2c0.9-0.6 2.1-0.7 3.1-0.4 1.1 0.3 1.9 1 2.5 2l19.5 36.9 33.9-24.1c1-0.7 2.2-0.9 3.3-0.6 1.1 0.3 2.1 1.1 2.6 2.2l18.3 39.3c0.9 2 0.1 4.4-1.9 5.3-0.4 0.2-1 0.3-1.5 0.3zM761.2 620.9c-0.6 0-1.1-0.1-1.7-0.4-2-0.9-2.9-3.3-1.9-5.3l18.3-39.3c0.5-1.1 1.5-1.9 2.6-2.2 1.2-0.3 2.4-0.1 3.3 0.6l33.9 24.1 19.5-36.9c0.5-1 1.4-1.7 2.5-2 1.1-0.3 2.2-0.1 3.1 0.4l35.5 21.2 22.4-39.9c1.1-1.9 3.5-2.6 5.4-1.5 1.9 1.1 2.6 3.5 1.5 5.4l-24.4 43.5c-0.5 0.9-1.4 1.6-2.5 1.9-1 0.3-2.2 0.1-3.1-0.4L840.2 569l-19.7 37.2c-0.5 1-1.5 1.8-2.6 2s-2.3 0-3.2-0.6l-33.7-24-16.3 34.9c-0.6 1.6-2 2.4-3.5 2.4z" fill="#faf0ff" /><path d="M768.4 648.9c-0.6 0-1.1-0.1-1.7-0.4-2-0.9-2.9-3.3-1.9-5.3l18.3-39.3c0.5-1.1 1.5-1.9 2.6-2.2 1.2-0.3 2.4-0.1 3.3 0.6l33.9 24.1 19.5-36.9c0.5-1 1.4-1.7 2.5-2 1.1-0.3 2.2-0.1 3.1 0.4l35.5 21.2 22.4-39.9c1.1-1.9 3.5-2.6 5.4-1.5 1.9 1.1 2.6 3.5 1.5 5.4l-24.4 43.5c-0.5 0.9-1.4 1.6-2.5 1.9-1 0.3-2.2 0.1-3.1-0.4L847.4 597l-19.7 37.2c-0.5 1-1.5 1.8-2.6 2s-2.3 0-3.2-0.6l-33.7-24-16.2 35c-0.6 1.5-2.1 2.3-3.6 2.3z" fill="#faf0ff" /><path d="M161.4 847.5c-1.6 0-3.3-0.4-4.7-1.2L83.1 807c-4.8-2.6-6.7-8.5-4.2-13.4l11.7-22.8c-1.8-0.8-3.7-1.7-5.6-2.9-9.1-5.6-19.8-17.2-19.8-40.8 0-33.2 64.1-235.5 77-275.8 38-118.9 82.7-249.4 97-273 3.1-5.1 5.9-8.7 10.2-13 3.9-3.9 10.2-3.9 14.1 0 3.9 3.9 3.9 10.2 0 14.1-3.1 3.2-5 5.5-7.2 9.2-11.3 18.7-51.3 131.7-95.1 268.8-44.7 140.1-76 251-76 269.7 0 11.6 3.4 19.6 10.3 23.8 4.8 3 9.8 3.2 9.9 3.2 3.5 0 6.7 1.8 8.5 4.8 1.8 3 1.9 6.7 0.4 9.8l-13 25.4 55.7 29.8 12.5-26.6c1.3-2.8 3.7-5 6.8-5.6 3-0.7 6 0 8.4 2 2.6 1.9 15.6 9.2 32.6-12.1 6.2-7.8 14.2-30.6 17.8-43.2 1.5-5.3 7.1-8.4 12.4-6.9 5.3 1.5 8.4 7.1 6.9 12.4-1.1 3.7-10.7 36.8-21.5 50.2-18.1 22.6-36.9 24.6-49.6 20.8L170.5 842c-1.2 2.5-3.3 4.4-5.9 5.2-1.1 0.2-2.1 0.3-3.2 0.3zM512.6 213.5c-0.3 0-0.7 0-1-0.1-61.3-6.4-240.7-92.5-248.3-96.1-5-2.4-7.1-8.4-4.7-13.3 2.4-5 8.4-7.1 13.3-4.7 1.8 0.9 183.8 88.2 241.7 94.2 5.5 0.6 9.5 5.5 8.9 11-0.5 5.2-4.8 9-9.9 9zM428.9 491.9c-5.5 0-10-4.5-10-10V203.7c0-5.5 4.5-10 10-10s10 4.5 10 10v278.2c0 5.5-4.4 10-10 10z" fill="#992383" /><path d="M440.9 531.8h-23.2c-5.5 0-10-4.5-10-10l-0.2-39.9c0-2.7 1-5.2 2.9-7.1 1.9-1.9 4.4-2.9 7.1-2.9h23.4c5.5 0 10 4.5 10 10v39.9c0 5.5-4.5 10-10 10z m-13.2-20h3.2v-19.9h-3.3l0.1 19.9z" fill="#992383" /><path d="M275.8 929.6c-4 0-7.7-2.4-9.3-6.2-1.3-3.1-31.5-77.3-37.3-114.4-0.9-6-3.8-24.3 34.7-269.7 18.9-120.6 38.7-238.3 38.9-239.5 0.9-5.4 6.1-9.1 11.5-8.2 5.4 0.9 9.1 6.1 8.2 11.5C290.8 491.2 245 780.4 249 805.9c2.4 15.2 9.5 37.9 16.8 58.8 0.1-4.7 3.6-8.7 8.3-9.5 1.4-0.2 144.9-24.7 238.1-24.7 90 0 232.8 23.7 238.8 24.7 4.7 0.8 8.2 4.8 8.3 9.5 7.3-20.9 14.4-43.6 16.8-58.8 4-25.5-41.8-314.7-73.5-502.8-0.9-5.4 2.8-10.6 8.2-11.5 5.4-0.9 10.6 2.8 11.5 8.2 0.2 1.2 20 118.9 38.9 239.5C799.6 784.7 796.8 803 795.9 809c-5.8 37.1-36 111.2-37.3 114.4-1.8 4.4-6.5 6.9-11.2 6-4.7-0.9-8.1-5-8.1-9.8v-46c-32.3-5.1-151-23.1-227.1-23.1-78.7 0-194.6 17.9-226.4 23v46.1c0 4.8-3.4 8.9-8.1 9.8-0.6 0.2-1.2 0.2-1.9 0.2z" fill="#992383" /><path d="M749.3 929.6h-0.1c-1.8 0-178.3-1.8-237.1-1.8-55.8 0-234.4 1.8-236.2 1.8h-0.1c-5.5 0-9.9-4.4-10-9.9-0.1-5.5 4.4-10 9.9-10.1 1.8 0 180.5-1.8 236.4-1.8 58.9 0 235.6 1.8 237.3 1.8 5.5 0.1 10 4.6 9.9 10.1 0 5.5-4.5 9.9-10 9.9zM512.9 213.7h-0.4c-0.8 0-1.5 0-2.4-0.2-101.6-0.5-266.3-33.4-273.3-34.8-3-0.6-5.6-2.6-7-5.3-1.4-2.8-1.4-6-0.1-8.8l28.7-60.6c1.7-3.5 5.2-5.7 9-5.7h490c3.9 0 7.4 2.2 9 5.7l28.7 60.6c1.3 2.8 1.3 6-0.1 8.8-1.4 2.8-4 4.7-7 5.3-7 1.4-171.7 34.3-273.3 34.8-0.4 0.2-1.1 0.2-1.8 0.2z m-99-95.3c9.7 8.3 23.6 19.6 40.9 33 29.4 22.8 50.5 37.7 57.8 41.7 7.3-4 28.4-18.9 57.8-41.7 17.3-13.4 31.2-24.7 40.9-33H413.9z m225.4 1.4c-2 2.1-4.7 4.6-8.2 7.8-7.1 6.3-17.2 14.8-29.2 24.4-17.7 14.2-37 29-52.5 40.3 81.8-5 186.6-24 222.4-30.7l-20.5-43.2h-54.8c4.1 1.6 8.2 3.4 12.5 5.2 5.1 2.2 7.4 8.1 5.1 13.2-2.2 5.1-8.1 7.4-13.2 5.1-25.6-11.2-50.2-18.8-61.6-22.1z m-385.8 41.7c35.8 6.8 140.6 25.7 222.4 30.7-15.6-11.2-34.9-26-52.6-40.2-12.1-9.7-22.2-18.1-29.2-24.4-3.5-3.1-6.2-5.7-8.2-7.8-11.4 3.3-36 10.9-61.6 22.1-5.1 2.2-11-0.1-13.2-5.1-2.2-5.1 0.1-11 5.1-13.2 4.2-1.8 8.4-3.6 12.5-5.2h-54.8l-20.4 43.1z" fill="#992383" /><path d="M863.8 847.5c-1.1 0-2.1-0.2-3.1-0.5-2.6-0.9-4.7-2.8-5.9-5.2L842 814.7c-12.7 3.7-31.6 1.7-49.6-20.8-10.7-13.4-20.4-46.5-21.5-50.2-1.5-5.3 1.5-10.8 6.9-12.4 5.3-1.5 10.8 1.5 12.4 6.9 3.6 12.6 11.7 35.5 17.8 43.2 5.6 7 14.3 15.2 24.2 14.7 5-0.2 8.3-2.6 8.3-2.6 2.4-1.9 5.5-2.6 8.5-1.9 3 0.7 5.4 2.7 6.7 5.5l12.5 26.6L924 794l-13-25.4c-1.6-3.1-1.6-6.9 0.3-9.9 1.8-2.9 4.9-4.7 8.4-4.7h0.1c3.5-0.1 20.2-2 20.2-27 0-18.7-31.3-129.6-76-269.7-43.8-137.1-83.7-250.1-95.1-268.8-2.3-3.7-4.1-6.1-7.2-9.2-3.9-3.9-3.9-10.2 0-14.1 3.9-3.9 10.2-3.9 14.1 0 4.3 4.3 7.1 7.8 10.2 13 14.3 23.7 59.1 154.2 97 273 12.8 40.2 76.9 242.6 77 275.8 0 23.7-10.8 35.3-19.8 40.8-1.9 1.2-3.8 2.1-5.6 2.9l11.7 22.8c2.5 4.9 0.6 10.8-4.2 13.4l-73.6 39.4c-1.5 0.8-3.1 1.2-4.7 1.2zM512.6 213.5c-5.1 0-9.4-3.8-9.9-9-0.6-5.5 3.4-10.4 8.9-11 57.9-6 239.8-93.4 241.7-94.2 5-2.4 11-0.3 13.3 4.7 2.4 5 0.3 11-4.7 13.3-7.6 3.7-187 89.8-248.3 96.1-0.3 0.1-0.7 0.1-1 0.1zM596.2 491.9c-5.5 0-10-4.5-10-10V203.7c0-5.5 4.5-10 10-10s10 4.5 10 10v278.2c0 5.5-4.4 10-10 10z" fill="#992383" /><path d="M607.5 531.8h-23.2c-5.5 0-10-4.5-10-10v-39.9c0-5.5 4.5-10 10-10h23.4c2.7 0 5.2 1.1 7.1 2.9 1.9 1.9 2.9 4.4 2.9 7.1l-0.2 39.9c-0.1 5.5-4.5 10-10 10z m-13.2-20h3.2l0.1-19.9h-3.3v19.9zM843.6 802.3c-1.8 0-3.6-1-4.5-2.7-1.3-2.5-0.3-5.5 2.2-6.7l73.2-37.4c2.5-1.3 5.5-0.3 6.7 2.2 1.3 2.5 0.3 5.5-2.2 6.7l-73.2 37.4c-0.7 0.3-1.5 0.5-2.2 0.5zM181.2 802.3c-0.8 0-1.5-0.2-2.3-0.5l-73.2-37.4a5.02 5.02 0 0 1-2.2-6.7c1.3-2.5 4.3-3.4 6.7-2.2l73.2 37.4c2.5 1.3 3.4 4.3 2.2 6.7-0.8 1.7-2.5 2.7-4.4 2.7z" fill="#992383" /></svg>